<svg width="131" height="149" viewBox="0 0 131 149" fill="none" xmlns="http://www.w3.org/2000/svg">
<path d="M65.4657 148.025C101.22 148.025 130.205 135.55 130.205 120.162V98.8557H0.726562V120.162C0.726562 135.55 29.7113 148.025 65.4657 148.025Z" fill="url(#paint0_linear_51_11)" stroke="url(#paint1_linear_51_11)"/>
<path d="M65.4659 76.4092C83.3016 76.4092 99.4273 78.9719 111.076 83.1006C116.903 85.1658 121.583 87.6139 124.796 90.3067C128.012 93.0016 129.705 95.8923 129.705 98.8546C129.705 101.817 128.012 104.708 124.796 107.403C121.583 110.096 116.903 112.543 111.076 114.608C99.4273 118.737 83.3017 121.3 65.4659 121.3C47.6303 121.3 31.5046 118.737 19.8556 114.608C14.0289 112.543 9.34838 110.096 6.13489 107.403C2.9188 104.708 1.22668 101.817 1.22668 98.8546C1.22677 95.8925 2.91905 93.0016 6.13489 90.3067C9.34838 87.6139 14.0289 85.1658 19.8556 83.1006C31.5046 78.972 47.6303 76.4092 65.4659 76.4092Z" fill="url(#paint2_linear_51_11)"/>
<path d="M65.4659 76.4092C83.3016 76.4092 99.4273 78.9719 111.076 83.1006C116.903 85.1658 121.583 87.6139 124.796 90.3067C128.012 93.0016 129.705 95.8923 129.705 98.8546C129.705 101.817 128.012 104.708 124.796 107.403C121.583 110.096 116.903 112.543 111.076 114.608C99.4273 118.737 83.3017 121.3 65.4659 121.3C47.6303 121.3 31.5046 118.737 19.8556 114.608C14.0289 112.543 9.34838 110.096 6.13489 107.403C2.9188 104.708 1.22668 101.817 1.22668 98.8546C1.22677 95.8925 2.91905 93.0016 6.13489 90.3067C9.34838 87.6139 14.0289 85.1658 19.8556 83.1006C31.5046 78.972 47.6303 76.4092 65.4659 76.4092Z" fill="url(#paint3_radial_51_11)" fill-opacity="0.44"/>
<path d="M65.4659 76.4092C83.3016 76.4092 99.4273 78.9719 111.076 83.1006C116.903 85.1658 121.583 87.6139 124.796 90.3067C128.012 93.0016 129.705 95.8923 129.705 98.8546C129.705 101.817 128.012 104.708 124.796 107.403C121.583 110.096 116.903 112.543 111.076 114.608C99.4273 118.737 83.3017 121.3 65.4659 121.3C47.6303 121.3 31.5046 118.737 19.8556 114.608C14.0289 112.543 9.34838 110.096 6.13489 107.403C2.9188 104.708 1.22668 101.817 1.22668 98.8546C1.22677 95.8925 2.91905 93.0016 6.13489 90.3067C9.34838 87.6139 14.0289 85.1658 19.8556 83.1006C31.5046 78.972 47.6303 76.4092 65.4659 76.4092Z" stroke="url(#paint4_linear_51_11)"/>
<path d="M65.4651 118.523C99.4092 118.523 126.926 108.959 126.926 97.1614V80.8264H4.00391V97.1614C4.00391 108.959 31.521 118.523 65.4651 118.523Z" fill="url(#paint5_linear_51_11)"/>
<path d="M65.4651 118.523C99.4092 118.523 126.926 108.959 126.926 97.1614V80.8264H4.00391V97.1614C4.00391 108.959 31.521 118.523 65.4651 118.523Z" fill="#C6D4DB" fill-opacity="0.284"/>
<path opacity="0.5" d="M65.4649 111.787C99.409 111.787 126.926 102.223 126.926 90.4259V74.0909H4.00366V90.4259C4.00366 102.223 31.5208 111.787 65.4649 111.787Z" fill="url(#paint6_linear_51_11)"/>
<path d="M65.4657 108.69C101.22 108.69 130.205 98.1403 130.205 85.1267V62.7989H0.726562V85.1267C0.726562 98.1403 29.7113 108.69 65.4657 108.69Z" fill="url(#paint7_linear_51_11)" stroke="url(#paint8_linear_51_11)"/>
<path d="M65.4658 37.0745C83.2982 37.0745 99.4199 39.8201 111.065 44.2424C116.89 46.4542 121.569 49.0756 124.783 51.9612C127.997 54.847 129.705 57.9569 129.705 61.1594C129.705 64.3618 127.997 67.471 124.783 70.3567C121.569 73.2422 116.89 75.8637 111.065 78.0754C99.4199 82.4977 83.2982 85.2434 65.4658 85.2434C47.6335 85.2434 31.5117 82.4977 19.8662 78.0754C14.0419 75.8637 9.36248 73.2422 6.14844 70.3567C2.93433 67.471 1.22673 64.3618 1.22656 61.1594C1.22656 57.9569 2.93418 54.847 6.14844 51.9612C9.36248 49.0757 14.0419 46.4542 19.8662 44.2424C31.5117 39.8202 47.6335 37.0745 65.4658 37.0745Z" fill="url(#paint9_linear_51_11)"/>
<path d="M65.4658 37.0745C83.2982 37.0745 99.4199 39.8201 111.065 44.2424C116.89 46.4542 121.569 49.0756 124.783 51.9612C127.997 54.847 129.705 57.9569 129.705 61.1594C129.705 64.3618 127.997 67.471 124.783 70.3567C121.569 73.2422 116.89 75.8637 111.065 78.0754C99.4199 82.4977 83.2982 85.2434 65.4658 85.2434C47.6335 85.2434 31.5117 82.4977 19.8662 78.0754C14.0419 75.8637 9.36248 73.2422 6.14844 70.3567C2.93433 67.471 1.22673 64.3618 1.22656 61.1594C1.22656 57.9569 2.93418 54.847 6.14844 51.9612C9.36248 49.0757 14.0419 46.4542 19.8662 44.2424C31.5117 39.8202 47.6335 37.0745 65.4658 37.0745Z" fill="url(#paint10_radial_51_11)" fill-opacity="0.44"/>
<path d="M65.4658 37.0745C83.2982 37.0745 99.4199 39.8201 111.065 44.2424C116.89 46.4542 121.569 49.0756 124.783 51.9612C127.997 54.847 129.705 57.9569 129.705 61.1594C129.705 64.3618 127.997 67.471 124.783 70.3567C121.569 73.2422 116.89 75.8637 111.065 78.0754C99.4199 82.4977 83.2982 85.2434 65.4658 85.2434C47.6335 85.2434 31.5117 82.4977 19.8662 78.0754C14.0419 75.8637 9.36248 73.2422 6.14844 70.3567C2.93433 67.471 1.22673 64.3618 1.22656 61.1594C1.22656 57.9569 2.93418 54.847 6.14844 51.9612C9.36248 49.0757 14.0419 46.4542 19.8662 44.2424C31.5117 39.8202 47.6335 37.0745 65.4658 37.0745Z" stroke="url(#paint11_linear_51_11)"/>
<path d="M65.4651 82.4663C99.4092 82.4663 126.926 72.4867 126.926 60.1763V43.1311H4.00391V60.1763C4.00391 72.4867 31.521 82.4663 65.4651 82.4663Z" fill="url(#paint12_linear_51_11)"/>
<path d="M65.4651 82.4663C99.4092 82.4663 126.926 72.4867 126.926 60.1763V43.1311H4.00391V60.1763C4.00391 72.4867 31.521 82.4663 65.4651 82.4663Z" fill="#C6D4DB" fill-opacity="0.284"/>
<path opacity="0.5" d="M65.4651 74.9819C99.4092 74.9819 126.926 65.0024 126.926 52.692V35.6467H4.00391V52.692C4.00391 65.0024 31.521 74.9819 65.4651 74.9819Z" fill="url(#paint13_linear_51_11)"/>
<path d="M129.705 25.6838V47.8469C129.705 50.9517 128.003 53.9717 124.788 56.7795C121.574 59.5864 116.896 62.1373 111.07 64.2893C99.4235 68.592 83.2998 71.2629 65.4659 71.2629C47.6321 71.2629 31.5084 68.592 19.8615 64.2893C14.0361 62.1372 9.35646 59.5865 6.1427 56.7795C2.9281 53.9717 1.22682 50.9516 1.22668 47.8469V25.6838H129.705Z" fill="url(#paint14_linear_51_11)" stroke="url(#paint15_linear_51_11)"/>
<path d="M65.4678 1.01685C83.3016 1.01685 99.4254 3.68774 111.072 7.99048C116.897 10.1425 121.576 12.6934 124.79 15.5002C128.005 18.3082 129.707 21.329 129.707 24.4338C129.707 27.5386 128.005 30.5586 124.79 33.3665C121.576 36.1733 116.897 38.7242 111.072 40.8762C99.4254 45.179 83.3016 47.8498 65.4678 47.8499C47.6339 47.8499 31.5102 45.179 19.8633 40.8762C14.0379 38.7241 9.35829 36.1735 6.14453 33.3665C2.92993 30.5586 1.22863 27.5385 1.22852 24.4338C1.22852 21.329 2.92971 18.3082 6.14453 15.5002C9.35831 12.6932 14.0379 10.1426 19.8633 7.99048C31.5102 3.68774 47.6339 1.01685 65.4678 1.01685Z" fill="url(#paint16_linear_51_11)" stroke="url(#paint17_linear_51_11)"/>
<defs>
<linearGradient id="paint0_linear_51_11" x1="0.72656" y1="90.9409" x2="130.205" y2="90.9409" gradientUnits="userSpaceOnUse">
<stop stop-color="#B4C5CD"/>
<stop offset="0.718232" stop-color="#6C8A98"/>
<stop offset="1" stop-color="#6B8692"/>
</linearGradient>
<linearGradient id="paint1_linear_51_11" x1="65.4657" y1="98.8557" x2="65.4657" y2="148.025" gradientUnits="userSpaceOnUse">
<stop stop-color="#71E8DF" stop-opacity="0"/>
<stop offset="1" stop-color="#71E8DF"/>
</linearGradient>
<linearGradient id="paint2_linear_51_11" x1="108.334" y1="67.383" x2="42.6285" y2="128.442" gradientUnits="userSpaceOnUse">
<stop stop-color="#648697"/>
<stop offset="1" stop-color="#B8CCD5"/>
</linearGradient>
<radialGradient id="paint3_radial_51_11" cx="0" cy="0" r="1" gradientUnits="userSpaceOnUse" gradientTransform="translate(29.167 121.889) rotate(-140.974) scale(36.6092 31.4134)">
<stop stop-color="white"/>
<stop offset="1" stop-color="white" stop-opacity="0"/>
</radialGradient>
<linearGradient id="paint4_linear_51_11" x1="65.4659" y1="75.9092" x2="65.4659" y2="121.8" gradientUnits="userSpaceOnUse">
<stop stop-color="#71E8DF" stop-opacity="0"/>
<stop offset="1" stop-color="#71E8DF"/>
</linearGradient>
<linearGradient id="paint5_linear_51_11" x1="4.0039" y1="74.7584" x2="126.926" y2="74.7584" gradientUnits="userSpaceOnUse">
<stop stop-color="#183C56"/>
<stop offset="0.286458" stop-color="#335D7B"/>
<stop offset="1" stop-color="#082133"/>
</linearGradient>
<linearGradient id="paint6_linear_51_11" x1="4.00366" y1="68.0229" x2="126.926" y2="68.0229" gradientUnits="userSpaceOnUse">
<stop stop-color="#183C56"/>
<stop offset="0.286458" stop-color="#335D7B"/>
<stop offset="1" stop-color="#082133"/>
</linearGradient>
<linearGradient id="paint7_linear_51_11" x1="0.72656" y1="60.4142" x2="130.205" y2="60.4142" gradientUnits="userSpaceOnUse">
<stop stop-color="#B4C5CD"/>
<stop offset="0.718232" stop-color="#6C8A98"/>
<stop offset="1" stop-color="#6B8692"/>
</linearGradient>
<linearGradient id="paint8_linear_51_11" x1="65.4657" y1="62.7989" x2="65.4657" y2="108.69" gradientUnits="userSpaceOnUse">
<stop stop-color="#71E8DF" stop-opacity="0"/>
<stop offset="1" stop-color="#71E8DF"/>
</linearGradient>
<linearGradient id="paint9_linear_51_11" x1="108.334" y1="27.4392" x2="38.4547" y2="88.0475" gradientUnits="userSpaceOnUse">
<stop stop-color="#648697"/>
<stop offset="1" stop-color="#B8CCD5"/>
</linearGradient>
<radialGradient id="paint10_radial_51_11" cx="0" cy="0" r="1" gradientUnits="userSpaceOnUse" gradientTransform="translate(29.1669 85.8382) rotate(-139.028) scale(37.6677 32.7114)">
<stop stop-color="white"/>
<stop offset="1" stop-color="white" stop-opacity="0"/>
</radialGradient>
<linearGradient id="paint11_linear_51_11" x1="65.4657" y1="36.5745" x2="65.4657" y2="85.7435" gradientUnits="userSpaceOnUse">
<stop stop-color="#71E8DF" stop-opacity="0"/>
<stop offset="1" stop-color="#71E8DF"/>
</linearGradient>
<linearGradient id="paint12_linear_51_11" x1="4.0039" y1="36.7993" x2="126.926" y2="36.7993" gradientUnits="userSpaceOnUse">
<stop stop-color="#183C56"/>
<stop offset="0.286458" stop-color="#335D7B"/>
<stop offset="1" stop-color="#082133"/>
</linearGradient>
<linearGradient id="paint13_linear_51_11" x1="4.0039" y1="29.3149" x2="126.926" y2="29.3149" gradientUnits="userSpaceOnUse">
<stop stop-color="#183C56"/>
<stop offset="0.286458" stop-color="#335D7B"/>
<stop offset="1" stop-color="#082133"/>
</linearGradient>
<linearGradient id="paint14_linear_51_11" x1="0.726682" y1="22.7634" x2="130.205" y2="22.7634" gradientUnits="userSpaceOnUse">
<stop stop-color="#B4C5CD"/>
<stop offset="0.718232" stop-color="#6C8A98"/>
<stop offset="1" stop-color="#6B8692"/>
</linearGradient>
<linearGradient id="paint15_linear_51_11" x1="65.4659" y1="25.1838" x2="65.4659" y2="71.7632" gradientUnits="userSpaceOnUse">
<stop stop-color="#71E8DF" stop-opacity="0"/>
<stop offset="1" stop-color="#71E8DF"/>
</linearGradient>
<linearGradient id="paint16_linear_51_11" x1="109.21" y1="6.07107" x2="52.2819" y2="67.7168" gradientUnits="userSpaceOnUse">
<stop stop-color="#B9CAD2"/>
<stop offset="1" stop-color="#DBE6EB"/>
</linearGradient>
<linearGradient id="paint17_linear_51_11" x1="65.4677" y1="0.516846" x2="65.4677" y2="48.3502" gradientUnits="userSpaceOnUse">
<stop stop-color="#71E8DF" stop-opacity="0"/>
<stop offset="1" stop-color="#71E8DF"/>
</linearGradient>
</defs>
</svg>
