<svg width="237" height="23" viewBox="0 0 237 23" fill="none" xmlns="http://www.w3.org/2000/svg">
<path d="M11.8281 4.34375L14.1328 8.25H6.86719L9.13281 4.34375C9.71875 3.32812 11.2422 3.32812 11.8281 4.34375ZM3.19531 14.5L6.125 9.5H14.8359L17.7656 14.5H3.19531ZM2.49219 15.75H18.5078L20.0312 18.4062C20.6562 19.4609 19.9141 20.75 18.7031 20.75H2.25781C1.08594 20.75 0.304688 19.4609 0.929688 18.4062L2.49219 15.75Z" fill="#71E8DF"/>
<path d="M35.5 5.48C36.38 5.48 37.1533 5.66 37.82 6.02C38.4867 6.38 39 6.89333 39.36 7.56C39.7333 8.21333 39.92 8.96667 39.92 9.82C39.92 10.66 39.7267 11.4 39.34 12.04C38.9667 12.68 38.4333 13.18 37.74 13.54C37.06 13.8867 36.2733 14.06 35.38 14.06H32.54C32.4733 14.06 32.44 14.0933 32.44 14.16V19.26C32.44 19.3267 32.4133 19.3867 32.36 19.44C32.32 19.48 32.2667 19.5 32.2 19.5H29.86C29.7933 19.5 29.7333 19.48 29.68 19.44C29.64 19.3867 29.62 19.3267 29.62 19.26V5.72C29.62 5.65333 29.64 5.6 29.68 5.56C29.7333 5.50667 29.7933 5.48 29.86 5.48H35.5ZM35.08 11.8C35.6933 11.8 36.1867 11.6267 36.56 11.28C36.9333 10.92 37.12 10.4533 37.12 9.88C37.12 9.29333 36.9333 8.82 36.56 8.46C36.1867 8.1 35.6933 7.92 35.08 7.92H32.54C32.4733 7.92 32.44 7.95333 32.44 8.02V11.7C32.44 11.7667 32.4733 11.8 32.54 11.8H35.08ZM51.3336 19.5C51.2003 19.5 51.1069 19.44 51.0536 19.32L48.5536 13.78C48.5269 13.7267 48.4869 13.7 48.4336 13.7H46.5736C46.5069 13.7 46.4736 13.7333 46.4736 13.8V19.26C46.4736 19.3267 46.4469 19.3867 46.3936 19.44C46.3536 19.48 46.3003 19.5 46.2336 19.5H43.8936C43.8269 19.5 43.7669 19.48 43.7136 19.44C43.6736 19.3867 43.6536 19.3267 43.6536 19.26V5.74C43.6536 5.67333 43.6736 5.62 43.7136 5.58C43.7669 5.52667 43.8269 5.5 43.8936 5.5H49.6136C50.4669 5.5 51.2136 5.67333 51.8536 6.02C52.5069 6.36667 53.0069 6.86 53.3536 7.5C53.7136 8.14 53.8936 8.88 53.8936 9.72C53.8936 10.6267 53.6669 11.4067 53.2136 12.06C52.7603 12.7 52.1269 13.1533 51.3136 13.42C51.2469 13.4467 51.2269 13.4933 51.2536 13.56L53.9736 19.22C54.0003 19.2733 54.0136 19.3133 54.0136 19.34C54.0136 19.4467 53.9403 19.5 53.7936 19.5H51.3336ZM46.5736 7.92C46.5069 7.92 46.4736 7.95333 46.4736 8.02V11.44C46.4736 11.5067 46.5069 11.54 46.5736 11.54H49.1936C49.7536 11.54 50.2069 11.3733 50.5536 11.04C50.9136 10.7067 51.0936 10.2733 51.0936 9.74C51.0936 9.20667 50.9136 8.77333 50.5536 8.44C50.2069 8.09333 49.7536 7.92 49.1936 7.92H46.5736ZM58.1788 19.5C58.1121 19.5 58.0521 19.48 57.9988 19.44C57.9588 19.3867 57.9388 19.3267 57.9388 19.26V5.74C57.9388 5.67333 57.9588 5.62 57.9988 5.58C58.0521 5.52667 58.1121 5.5 58.1788 5.5H60.5188C60.5854 5.5 60.6388 5.52667 60.6788 5.58C60.7321 5.62 60.7588 5.67333 60.7588 5.74V19.26C60.7588 19.3267 60.7321 19.3867 60.6788 19.44C60.6388 19.48 60.5854 19.5 60.5188 19.5H58.1788ZM69.9927 19.66C68.926 19.66 67.9927 19.4933 67.1927 19.16C66.3927 18.8133 65.7727 18.3267 65.3327 17.7C64.906 17.06 64.6927 16.32 64.6927 15.48V15.04C64.6927 14.9733 64.7127 14.92 64.7527 14.88C64.806 14.8267 64.866 14.8 64.9327 14.8H67.2127C67.2793 14.8 67.3327 14.8267 67.3727 14.88C67.426 14.92 67.4527 14.9733 67.4527 15.04V15.34C67.4527 15.8733 67.6993 16.3267 68.1927 16.7C68.686 17.06 69.3527 17.24 70.1927 17.24C70.8993 17.24 71.426 17.0933 71.7727 16.8C72.1193 16.4933 72.2927 16.12 72.2927 15.68C72.2927 15.36 72.186 15.0933 71.9727 14.88C71.7593 14.6533 71.466 14.46 71.0927 14.3C70.7327 14.1267 70.1527 13.8933 69.3527 13.6C68.4593 13.2933 67.6993 12.98 67.0727 12.66C66.4593 12.34 65.9393 11.9067 65.5127 11.36C65.0993 10.8 64.8927 10.1133 64.8927 9.3C64.8927 8.5 65.0993 7.8 65.5127 7.2C65.926 6.6 66.4993 6.14 67.2327 5.82C67.966 5.5 68.8127 5.34 69.7727 5.34C70.786 5.34 71.686 5.52 72.4727 5.88C73.2727 6.24 73.8927 6.74667 74.3327 7.4C74.786 8.04 75.0127 8.78667 75.0127 9.64V9.94C75.0127 10.0067 74.986 10.0667 74.9327 10.12C74.8927 10.16 74.8393 10.18 74.7727 10.18H72.4727C72.406 10.18 72.346 10.16 72.2927 10.12C72.2527 10.0667 72.2327 10.0067 72.2327 9.94V9.78C72.2327 9.22 71.9993 8.74667 71.5327 8.36C71.0793 7.96 70.4527 7.76 69.6527 7.76C69.026 7.76 68.5327 7.89333 68.1727 8.16C67.826 8.42667 67.6527 8.79333 67.6527 9.26C67.6527 9.59333 67.7527 9.87333 67.9527 10.1C68.166 10.3267 68.4727 10.5333 68.8727 10.72C69.286 10.8933 69.9193 11.1333 70.7727 11.44C71.7193 11.7867 72.4593 12.0933 72.9927 12.36C73.5393 12.6267 74.026 13.0267 74.4527 13.56C74.8927 14.08 75.1127 14.76 75.1127 15.6C75.1127 16.8533 74.6527 17.8467 73.7327 18.58C72.8127 19.3 71.566 19.66 69.9927 19.66ZM88.0872 5.66C88.1539 5.55333 88.2472 5.5 88.3672 5.5H90.7072C90.7739 5.5 90.8272 5.52667 90.8672 5.58C90.9205 5.62 90.9472 5.67333 90.9472 5.74V19.26C90.9472 19.3267 90.9205 19.3867 90.8672 19.44C90.8272 19.48 90.7739 19.5 90.7072 19.5H88.3672C88.3005 19.5 88.2405 19.48 88.1872 19.44C88.1472 19.3867 88.1272 19.3267 88.1272 19.26V10.44C88.1272 10.3867 88.1139 10.36 88.0872 10.36C88.0605 10.36 88.0339 10.38 88.0072 10.42L85.8872 13.74C85.8205 13.8467 85.7272 13.9 85.6072 13.9H84.4272C84.3072 13.9 84.2139 13.8467 84.1472 13.74L82.0272 10.42C82.0005 10.38 81.9739 10.3667 81.9472 10.38C81.9205 10.38 81.9072 10.4067 81.9072 10.46V19.26C81.9072 19.3267 81.8805 19.3867 81.8272 19.44C81.7872 19.48 81.7339 19.5 81.6672 19.5H79.3272C79.2605 19.5 79.2005 19.48 79.1472 19.44C79.1072 19.3867 79.0872 19.3267 79.0872 19.26V5.74C79.0872 5.67333 79.1072 5.62 79.1472 5.58C79.2005 5.52667 79.2605 5.5 79.3272 5.5H81.6672C81.7872 5.5 81.8805 5.55333 81.9472 5.66L84.9472 10.32C84.9872 10.4 85.0272 10.4 85.0672 10.32L88.0872 5.66ZM104.284 19.5C104.151 19.5 104.064 19.4333 104.024 19.3L103.424 17.34C103.397 17.2867 103.364 17.26 103.324 17.26H98.4041C98.3641 17.26 98.3307 17.2867 98.3041 17.34L97.7241 19.3C97.6841 19.4333 97.5974 19.5 97.4641 19.5H94.9241C94.8441 19.5 94.7841 19.48 94.7441 19.44C94.7041 19.3867 94.6974 19.3133 94.7241 19.22L99.0441 5.7C99.0841 5.56667 99.1707 5.5 99.3041 5.5H102.444C102.577 5.5 102.664 5.56667 102.704 5.7L107.024 19.22C107.037 19.2467 107.044 19.28 107.044 19.32C107.044 19.44 106.971 19.5 106.824 19.5H104.284ZM99.0241 14.96C99.0107 15.04 99.0374 15.08 99.1041 15.08H102.624C102.704 15.08 102.731 15.04 102.704 14.96L100.904 9.02C100.891 8.96667 100.871 8.94667 100.844 8.96C100.817 8.96 100.797 8.98 100.784 9.02L99.0241 14.96ZM122.586 5.48C123.466 5.48 124.239 5.66 124.906 6.02C125.573 6.38 126.086 6.89333 126.446 7.56C126.819 8.21333 127.006 8.96667 127.006 9.82C127.006 10.66 126.813 11.4 126.426 12.04C126.053 12.68 125.519 13.18 124.826 13.54C124.146 13.8867 123.359 14.06 122.466 14.06H119.626C119.559 14.06 119.526 14.0933 119.526 14.16V19.26C119.526 19.3267 119.499 19.3867 119.446 19.44C119.406 19.48 119.353 19.5 119.286 19.5H116.946C116.879 19.5 116.819 19.48 116.766 19.44C116.726 19.3867 116.706 19.3267 116.706 19.26V5.72C116.706 5.65333 116.726 5.6 116.766 5.56C116.819 5.50667 116.879 5.48 116.946 5.48H122.586ZM122.166 11.8C122.779 11.8 123.273 11.6267 123.646 11.28C124.019 10.92 124.206 10.4533 124.206 9.88C124.206 9.29333 124.019 8.82 123.646 8.46C123.273 8.1 122.779 7.92 122.166 7.92H119.626C119.559 7.92 119.526 7.95333 119.526 8.02V11.7C119.526 11.7667 119.559 11.8 119.626 11.8H122.166ZM135.72 19.72C134.68 19.72 133.76 19.5067 132.96 19.08C132.173 18.6533 131.56 18.06 131.12 17.3C130.68 16.5267 130.46 15.64 130.46 14.64V10.36C130.46 9.37333 130.68 8.5 131.12 7.74C131.56 6.98 132.173 6.39333 132.96 5.98C133.76 5.55333 134.68 5.34 135.72 5.34C136.773 5.34 137.693 5.55333 138.48 5.98C139.28 6.39333 139.9 6.98 140.34 7.74C140.78 8.5 141 9.37333 141 10.36V14.64C141 15.64 140.78 16.5267 140.34 17.3C139.9 18.0733 139.28 18.6733 138.48 19.1C137.693 19.5133 136.773 19.72 135.72 19.72ZM135.72 17.3C136.453 17.3 137.046 17.0667 137.5 16.6C137.953 16.1333 138.18 15.5133 138.18 14.74V10.34C138.18 9.56667 137.953 8.94667 137.5 8.48C137.06 8 136.466 7.76 135.72 7.76C134.986 7.76 134.393 8 133.94 8.48C133.5 8.94667 133.28 9.56667 133.28 10.34V14.74C133.28 15.5133 133.5 16.1333 133.94 16.6C134.393 17.0667 134.986 17.3 135.72 17.3ZM149.961 19.66C148.895 19.66 147.961 19.4933 147.161 19.16C146.361 18.8133 145.741 18.3267 145.301 17.7C144.875 17.06 144.661 16.32 144.661 15.48V15.04C144.661 14.9733 144.681 14.92 144.721 14.88C144.775 14.8267 144.835 14.8 144.901 14.8H147.181C147.248 14.8 147.301 14.8267 147.341 14.88C147.395 14.92 147.421 14.9733 147.421 15.04V15.34C147.421 15.8733 147.668 16.3267 148.161 16.7C148.655 17.06 149.321 17.24 150.161 17.24C150.868 17.24 151.395 17.0933 151.741 16.8C152.088 16.4933 152.261 16.12 152.261 15.68C152.261 15.36 152.155 15.0933 151.941 14.88C151.728 14.6533 151.435 14.46 151.061 14.3C150.701 14.1267 150.121 13.8933 149.321 13.6C148.428 13.2933 147.668 12.98 147.041 12.66C146.428 12.34 145.908 11.9067 145.481 11.36C145.068 10.8 144.861 10.1133 144.861 9.3C144.861 8.5 145.068 7.8 145.481 7.2C145.895 6.6 146.468 6.14 147.201 5.82C147.935 5.5 148.781 5.34 149.741 5.34C150.755 5.34 151.655 5.52 152.441 5.88C153.241 6.24 153.861 6.74667 154.301 7.4C154.755 8.04 154.981 8.78667 154.981 9.64V9.94C154.981 10.0067 154.955 10.0667 154.901 10.12C154.861 10.16 154.808 10.18 154.741 10.18H152.441C152.375 10.18 152.315 10.16 152.261 10.12C152.221 10.0667 152.201 10.0067 152.201 9.94V9.78C152.201 9.22 151.968 8.74667 151.501 8.36C151.048 7.96 150.421 7.76 149.621 7.76C148.995 7.76 148.501 7.89333 148.141 8.16C147.795 8.42667 147.621 8.79333 147.621 9.26C147.621 9.59333 147.721 9.87333 147.921 10.1C148.135 10.3267 148.441 10.5333 148.841 10.72C149.255 10.8933 149.888 11.1333 150.741 11.44C151.688 11.7867 152.428 12.0933 152.961 12.36C153.508 12.6267 153.995 13.0267 154.421 13.56C154.861 14.08 155.081 14.76 155.081 15.6C155.081 16.8533 154.621 17.8467 153.701 18.58C152.781 19.3 151.535 19.66 149.961 19.66ZM168.56 5.5C168.626 5.5 168.68 5.52667 168.72 5.58C168.773 5.62 168.8 5.67333 168.8 5.74V7.7C168.8 7.76667 168.773 7.82667 168.72 7.88C168.68 7.92 168.626 7.94 168.56 7.94H164.98C164.913 7.94 164.88 7.97333 164.88 8.04V19.26C164.88 19.3267 164.853 19.3867 164.8 19.44C164.76 19.48 164.706 19.5 164.64 19.5H162.3C162.233 19.5 162.173 19.48 162.12 19.44C162.08 19.3867 162.06 19.3267 162.06 19.26V8.04C162.06 7.97333 162.026 7.94 161.96 7.94H158.48C158.413 7.94 158.353 7.92 158.3 7.88C158.26 7.82667 158.24 7.76667 158.24 7.7V5.74C158.24 5.67333 158.26 5.62 158.3 5.58C158.353 5.52667 158.413 5.5 158.48 5.5H168.56ZM176.953 19.66C175.926 19.66 175.019 19.4533 174.233 19.04C173.446 18.6267 172.833 18.0533 172.393 17.32C171.966 16.5733 171.753 15.7133 171.753 14.74V10.26C171.753 9.28667 171.966 8.42667 172.393 7.68C172.833 6.93333 173.446 6.36 174.233 5.96C175.019 5.54667 175.926 5.34 176.953 5.34C177.966 5.34 178.859 5.54 179.633 5.94C180.419 6.34 181.026 6.88667 181.453 7.58C181.893 8.26 182.112 9.02 182.112 9.86V10C182.112 10.0667 182.086 10.1267 182.033 10.18C181.993 10.22 181.939 10.24 181.873 10.24H179.533C179.466 10.24 179.406 10.22 179.353 10.18C179.313 10.1267 179.293 10.0667 179.293 10V9.94C179.293 9.32667 179.079 8.81333 178.653 8.4C178.226 7.97333 177.659 7.76 176.953 7.76C176.233 7.76 175.653 7.98667 175.213 8.44C174.786 8.88 174.573 9.46 174.573 10.18V14.82C174.573 15.54 174.806 16.1267 175.273 16.58C175.739 17.02 176.333 17.24 177.053 17.24C177.746 17.24 178.299 17.06 178.713 16.7C179.126 16.3267 179.333 15.8133 179.333 15.16V14.26C179.333 14.1933 179.299 14.16 179.233 14.16H176.993C176.926 14.16 176.866 14.14 176.813 14.1C176.773 14.0467 176.753 13.9867 176.753 13.92V12.08C176.753 12.0133 176.773 11.96 176.813 11.92C176.866 11.8667 176.926 11.84 176.993 11.84H181.873C181.939 11.84 181.993 11.8667 182.033 11.92C182.086 11.96 182.112 12.0133 182.112 12.08V14.72C182.112 15.7333 181.899 16.6133 181.473 17.36C181.046 18.1067 180.439 18.68 179.653 19.08C178.879 19.4667 177.979 19.66 176.953 19.66ZM193.959 19.5C193.825 19.5 193.732 19.44 193.679 19.32L191.179 13.78C191.152 13.7267 191.112 13.7 191.059 13.7H189.199C189.132 13.7 189.099 13.7333 189.099 13.8V19.26C189.099 19.3267 189.072 19.3867 189.019 19.44C188.979 19.48 188.925 19.5 188.859 19.5H186.519C186.452 19.5 186.392 19.48 186.339 19.44C186.299 19.3867 186.279 19.3267 186.279 19.26V5.74C186.279 5.67333 186.299 5.62 186.339 5.58C186.392 5.52667 186.452 5.5 186.519 5.5H192.239C193.092 5.5 193.839 5.67333 194.479 6.02C195.132 6.36667 195.632 6.86 195.979 7.5C196.339 8.14 196.519 8.88 196.519 9.72C196.519 10.6267 196.292 11.4067 195.839 12.06C195.385 12.7 194.752 13.1533 193.939 13.42C193.872 13.4467 193.852 13.4933 193.879 13.56L196.599 19.22C196.625 19.2733 196.639 19.3133 196.639 19.34C196.639 19.4467 196.565 19.5 196.419 19.5H193.959ZM189.199 7.92C189.132 7.92 189.099 7.95333 189.099 8.02V11.44C189.099 11.5067 189.132 11.54 189.199 11.54H191.819C192.379 11.54 192.832 11.3733 193.179 11.04C193.539 10.7067 193.719 10.2733 193.719 9.74C193.719 9.20667 193.539 8.77333 193.179 8.44C192.832 8.09333 192.379 7.92 191.819 7.92H189.199ZM210.284 7.68C210.284 7.74667 210.257 7.80667 210.204 7.86C210.164 7.9 210.11 7.92 210.044 7.92H203.484C203.417 7.92 203.384 7.95333 203.384 8.02V11.12C203.384 11.1867 203.417 11.22 203.484 11.22H207.784C207.85 11.22 207.904 11.2467 207.944 11.3C207.997 11.34 208.024 11.3933 208.024 11.46V13.4C208.024 13.4667 207.997 13.5267 207.944 13.58C207.904 13.62 207.85 13.64 207.784 13.64H203.484C203.417 13.64 203.384 13.6733 203.384 13.74V16.98C203.384 17.0467 203.417 17.08 203.484 17.08H210.044C210.11 17.08 210.164 17.1067 210.204 17.16C210.257 17.2 210.284 17.2533 210.284 17.32V19.26C210.284 19.3267 210.257 19.3867 210.204 19.44C210.164 19.48 210.11 19.5 210.044 19.5H200.804C200.737 19.5 200.677 19.48 200.624 19.44C200.584 19.3867 200.564 19.3267 200.564 19.26V5.74C200.564 5.67333 200.584 5.62 200.624 5.58C200.677 5.52667 200.737 5.5 200.804 5.5H210.044C210.11 5.5 210.164 5.52667 210.204 5.58C210.257 5.62 210.284 5.67333 210.284 5.74V7.68ZM219.043 19.66C217.977 19.66 217.043 19.4933 216.243 19.16C215.443 18.8133 214.823 18.3267 214.383 17.7C213.957 17.06 213.743 16.32 213.743 15.48V15.04C213.743 14.9733 213.763 14.92 213.803 14.88C213.857 14.8267 213.917 14.8 213.983 14.8H216.263C216.33 14.8 216.383 14.8267 216.423 14.88C216.477 14.92 216.503 14.9733 216.503 15.04V15.34C216.503 15.8733 216.75 16.3267 217.243 16.7C217.737 17.06 218.403 17.24 219.243 17.24C219.95 17.24 220.477 17.0933 220.823 16.8C221.17 16.4933 221.343 16.12 221.343 15.68C221.343 15.36 221.237 15.0933 221.023 14.88C220.81 14.6533 220.517 14.46 220.143 14.3C219.783 14.1267 219.203 13.8933 218.403 13.6C217.51 13.2933 216.75 12.98 216.123 12.66C215.51 12.34 214.99 11.9067 214.563 11.36C214.15 10.8 213.943 10.1133 213.943 9.3C213.943 8.5 214.15 7.8 214.563 7.2C214.977 6.6 215.55 6.14 216.283 5.82C217.017 5.5 217.863 5.34 218.823 5.34C219.837 5.34 220.737 5.52 221.523 5.88C222.323 6.24 222.943 6.74667 223.383 7.4C223.837 8.04 224.063 8.78667 224.063 9.64V9.94C224.063 10.0067 224.037 10.0667 223.983 10.12C223.943 10.16 223.89 10.18 223.823 10.18H221.523C221.457 10.18 221.397 10.16 221.343 10.12C221.303 10.0667 221.283 10.0067 221.283 9.94V9.78C221.283 9.22 221.05 8.74667 220.583 8.36C220.13 7.96 219.503 7.76 218.703 7.76C218.077 7.76 217.583 7.89333 217.223 8.16C216.877 8.42667 216.703 8.79333 216.703 9.26C216.703 9.59333 216.803 9.87333 217.003 10.1C217.217 10.3267 217.523 10.5333 217.923 10.72C218.337 10.8933 218.97 11.1333 219.823 11.44C220.77 11.7867 221.51 12.0933 222.043 12.36C222.59 12.6267 223.077 13.0267 223.503 13.56C223.943 14.08 224.163 14.76 224.163 15.6C224.163 16.8533 223.703 17.8467 222.783 18.58C221.863 19.3 220.617 19.66 219.043 19.66ZM231.358 5.3C232.118 5.3 232.811 5.47333 233.438 5.82C234.065 6.16667 234.551 6.64 234.898 7.24C235.258 7.84 235.438 8.51333 235.438 9.26C235.438 10.0333 235.258 10.7333 234.898 11.36C234.551 11.9867 234.065 12.48 233.438 12.84C232.811 13.1867 232.118 13.36 231.358 13.36C230.598 13.36 229.905 13.1867 229.278 12.84C228.665 12.48 228.178 11.9867 227.818 11.36C227.471 10.7333 227.298 10.0333 227.298 9.26C227.298 8.51333 227.471 7.84 227.818 7.24C228.178 6.64 228.665 6.16667 229.278 5.82C229.905 5.47333 230.598 5.3 231.358 5.3ZM231.358 12.18C232.185 12.18 232.871 11.9067 233.418 11.36C233.965 10.8 234.238 10.1 234.238 9.26C234.238 8.74 234.111 8.26667 233.858 7.84C233.605 7.41333 233.258 7.08 232.818 6.84C232.378 6.58667 231.891 6.46 231.358 6.46C230.825 6.46 230.338 6.58667 229.898 6.84C229.458 7.08 229.111 7.41333 228.858 7.84C228.618 8.26667 228.498 8.74 228.498 9.26C228.498 10.1133 228.765 10.8133 229.298 11.36C229.845 11.9067 230.531 12.18 231.358 12.18ZM232.778 8.62C232.778 9.06 232.618 9.37333 232.298 9.56C232.245 9.57333 232.231 9.61333 232.258 9.68L232.678 10.86C232.691 10.8867 232.698 10.92 232.698 10.96C232.698 11.08 232.625 11.14 232.478 11.14H231.978C231.845 11.14 231.758 11.0733 231.718 10.94L231.338 9.82C231.311 9.76667 231.278 9.74 231.238 9.74H231.198C231.131 9.74 231.098 9.77333 231.098 9.84V10.9C231.098 10.9667 231.071 11.0267 231.018 11.08C230.978 11.12 230.925 11.14 230.858 11.14H230.418C230.351 11.14 230.291 11.12 230.238 11.08C230.198 11.0267 230.178 10.9667 230.178 10.9V7.68C230.178 7.61333 230.198 7.56 230.238 7.52C230.291 7.46667 230.351 7.44 230.418 7.44H231.598C231.945 7.44 232.225 7.55333 232.438 7.78C232.665 8.00667 232.778 8.28667 232.778 8.62ZM231.198 8.24C231.131 8.24 231.098 8.27333 231.098 8.34V8.94C231.098 9.00667 231.131 9.04 231.198 9.04H231.458C231.578 9.04 231.671 9 231.738 8.92C231.818 8.84 231.858 8.74667 231.858 8.64C231.858 8.52 231.818 8.42667 231.738 8.36C231.671 8.28 231.578 8.24 231.458 8.24H231.198Z" fill="#71E8DF"/>
</svg>
