<svg width="16" height="15" viewBox="0 0 16 15" fill="none" xmlns="http://www.w3.org/2000/svg">
<path d="M15.4688 8.38281L9.28125 14.2891C8.92969 14.6055 8.40234 14.6055 8.08594 14.2539C7.76953 13.9023 7.76953 13.375 8.12109 13.0586L12.7969 8.59375H0.84375C0.351562 8.59375 0 8.24219 0 7.75C0 7.29297 0.351562 6.90625 0.84375 6.90625H12.7969L8.12109 2.47656C7.76953 2.16016 7.76953 1.59766 8.08594 1.28125C8.40234 0.929688 8.96484 0.929688 9.28125 1.24609L15.4688 7.15234C15.6445 7.32812 15.75 7.53906 15.75 7.75C15.75 7.99609 15.6445 8.20703 15.4688 8.38281Z" fill="white"/>
</svg>
