<svg width="13" height="16" viewBox="0 0 13 16" fill="none" xmlns="http://www.w3.org/2000/svg">
<path d="M11.1375 10.2516C11.3695 10.2516 11.6016 10.0485 11.6016 9.7875V3.8707L9.6293 1.89844H5.56875C5.30771 1.89844 5.10469 2.13047 5.10469 2.3625V9.7875C5.10469 10.0485 5.30771 10.2516 5.56875 10.2516H11.1375ZM5.56875 11.6437C4.52461 11.6437 3.7125 10.8316 3.7125 9.7875V2.3625C3.7125 1.34736 4.52461 0.50625 5.56875 0.50625H9.6293C9.97734 0.50625 10.3544 0.680273 10.6154 0.941308L12.5587 2.88457C12.8197 3.14561 12.9938 3.52266 12.9938 3.8707V9.7875C12.9938 10.8316 12.1526 11.6437 11.1375 11.6437H5.56875ZM1.85625 4.21875H2.78438V5.61094H1.85625C1.59521 5.61094 1.39219 5.84297 1.39219 6.075V13.5C1.39219 13.761 1.59521 13.9641 1.85625 13.9641H7.425C7.65703 13.9641 7.88906 13.761 7.88906 13.5V12.5719H9.28125V13.5C9.28125 14.5441 8.44014 15.3563 7.425 15.3563H1.85625C0.812109 15.3563 0 14.5441 0 13.5V6.075C0 5.05986 0.812109 4.21875 1.85625 4.21875Z" fill="#E2E8F0"/>
</svg>
