<svg width="16" height="19" viewBox="0 0 16 19" fill="none" xmlns="http://www.w3.org/2000/svg">
<path d="M14.0625 3.77344H14.0273C13.8516 3.59766 13.4648 3.38672 12.8672 3.17578C11.6719 2.75391 9.87891 2.4375 7.875 2.4375C5.83594 2.4375 4.04297 2.75391 2.84766 3.17578C2.25 3.38672 1.86328 3.59766 1.6875 3.77344V6.90234C2.14453 7.14844 2.77734 7.39453 3.58594 7.60547C4.78125 7.88672 6.25781 8.0625 7.875 8.0625C9.45703 8.0625 10.9336 7.88672 12.1289 7.60547C12.9375 7.39453 13.5703 7.14844 14.0625 6.90234V3.77344ZM14.0625 8.76562C13.5703 8.94141 13.0781 9.11719 12.5156 9.25781C11.1797 9.57422 9.5625 9.75 7.875 9.75C6.15234 9.75 4.53516 9.57422 3.19922 9.25781C2.63672 9.11719 2.14453 8.94141 1.6875 8.76562V11.4023C2.14453 11.6484 2.77734 11.8945 3.58594 12.1055C4.78125 12.3867 6.25781 12.5625 7.875 12.5625C9.45703 12.5625 10.9336 12.3867 12.1289 12.1055C12.9375 11.8945 13.5703 11.6484 14.0625 11.4023V8.76562ZM1.6875 15.7266V15.7617C1.89844 15.9023 2.25 16.1484 2.84766 16.3594C4.04297 16.7812 5.83594 17.0625 7.875 17.0625C9.87891 17.0625 11.6719 16.7812 12.8672 16.3594C13.4648 16.1484 13.8516 15.9023 14.0273 15.7617L14.0625 15.7266V13.2656C13.5703 13.4414 13.0781 13.6172 12.5156 13.7578C11.1797 14.0742 9.5625 14.25 7.875 14.25C6.15234 14.25 4.53516 14.0742 3.19922 13.7578C2.63672 13.6172 2.14453 13.4414 1.6875 13.2656V15.7266ZM14.1328 15.6562L14.0977 15.6914C14.1328 15.6562 14.1328 15.6562 14.1328 15.6562ZM1.61719 15.6562C1.58203 15.6562 1.61719 15.6562 1.61719 15.6562V15.6914C1.61719 15.6914 1.61719 15.6914 1.61719 15.6562ZM1.61719 3.87891C1.58203 3.84375 1.61719 3.84375 1.61719 3.84375C1.61719 3.87891 1.61719 3.87891 1.61719 3.87891C1.61719 3.87891 1.61719 3.87891 1.58203 3.87891C1.58203 3.87891 1.58203 3.87891 1.61719 3.87891ZM14.1328 3.84375V3.87891C14.1328 3.87891 14.1328 3.87891 14.0977 3.87891C14.0977 3.84375 14.0977 3.84375 14.1328 3.84375ZM15.75 15.9375C15.75 17.5195 12.1992 18.75 7.875 18.75C3.51562 18.75 0 17.5195 0 15.9375V3.5625C0 2.01562 3.51562 0.75 7.875 0.75C12.1992 0.75 15.75 2.01562 15.75 3.5625V15.9375Z" fill="white"/>
</svg>
