<svg width="16" height="15" viewBox="0 0 16 15" fill="none" xmlns="http://www.w3.org/2000/svg">
<path d="M6.89844 1.92578L7.28125 0.886719C7.30859 0.804688 7.39062 0.75 7.5 0.75C7.58203 0.75 7.66406 0.804688 7.69141 0.886719L8.07422 1.92578L9.11328 2.30859C9.19531 2.33594 9.25 2.41797 9.25 2.5C9.25 2.60938 9.19531 2.69141 9.11328 2.71875L8.07422 3.10156L7.69141 4.11328C7.66406 4.19531 7.58203 4.25 7.5 4.25C7.39062 4.25 7.30859 4.19531 7.28125 4.11328L6.89844 3.10156L5.88672 2.71875C5.80469 2.69141 5.75 2.60938 5.75 2.5C5.75 2.41797 5.80469 2.33594 5.88672 2.30859L6.89844 1.92578ZM1.75781 11.5781L12.1758 1.16016C12.6953 0.640625 13.5156 0.640625 14.0352 1.16016L14.9648 2.08984C15.4844 2.60938 15.4844 3.42969 14.9648 3.94922L4.54688 14.3672C4.02734 14.8867 3.20703 14.8867 2.6875 14.3672L1.75781 13.4375C1.23828 12.918 1.23828 12.0977 1.75781 11.5781ZM13.7344 3.01953L13.1055 2.39062L10.2344 5.26172L10.8633 5.89062L13.7344 3.01953ZM0.691406 3.97656L2.25 3.375L2.82422 1.84375C2.85156 1.70703 2.98828 1.625 3.125 1.625C3.23438 1.625 3.37109 1.70703 3.39844 1.84375L4 3.375L5.53125 3.97656C5.66797 4.00391 5.75 4.14062 5.75 4.25C5.75 4.38672 5.66797 4.52344 5.53125 4.55078L4 5.125L3.39844 6.68359C3.37109 6.79297 3.23438 6.875 3.125 6.875C2.98828 6.875 2.85156 6.79297 2.82422 6.68359L2.25 5.125L0.691406 4.55078C0.582031 4.52344 0.5 4.38672 0.5 4.25C0.5 4.14062 0.582031 4.00391 0.691406 3.97656ZM10.3164 10.9766L11.875 10.375L12.4492 8.84375C12.4766 8.70703 12.6133 8.625 12.75 8.625C12.8594 8.625 12.9961 8.70703 13.0234 8.84375L13.625 10.375L15.1562 10.9766C15.293 11.0039 15.375 11.1406 15.375 11.25C15.375 11.3867 15.293 11.5234 15.1562 11.5508L13.625 12.125L13.0234 13.6836C12.9961 13.793 12.8594 13.875 12.75 13.875C12.6133 13.875 12.4766 13.793 12.4492 13.6836L11.875 12.125L10.3164 11.5508C10.207 11.5234 10.125 11.3867 10.125 11.25C10.125 11.1406 10.207 11.0039 10.3164 10.9766Z" fill="#E2E8F0"/>
</svg>
